PathFileType	4	(X/Y/Z)	./resultDataOpenSim/trcMotMarkerGrf/sub09/qtm-02-02.trc
DataRate	CameraRate	NumFrames	NumMarkers	Units	OrigDataRate	OrigDataStartFrame	OrigNumFrames
250.000000	250.000000	7	24	m	250.000000	243	484
Frame#	Time	L.Toe.Tip			R.Toe.Tip			L.Ankle.Lat			R.Ankle.Lat			L.Ankle.Med			R.Ankle.Med			L.Heel			R.Heel			L.Knee.Lat			R.Knee.Lat			L.Knee.Med			R.Knee.Med			L.Thigh.Upper			R.Thigh.Upper			L.ASIS			R.ASIS			V.Sacral			L.Acromium			R.Acromium			C7			L.Elbow			R.Elbow			L.Wrist.Lat			R.Wrist.Lat
		X1	Y1	Z1	X2	Y2	Z2	X3	Y3	Z3	X4	Y4	Z4	X5	Y5	Z5	X6	Y6	Z6	X7	Y7	Z7	X8	Y8	Z8	X9	Y9	Z9	X10	Y10	Z10	X11	Y11	Z11	X12	Y12	Z12	X13	Y13	Z13	X14	Y14	Z14	X15	Y15	Z15	X16	Y16	Z16	X17	Y17	Z17	X18	Y18	Z18	X19	Y19	Z19	X20	Y20	Z20	X21	Y21	Z21	X22	Y22	Z22	X23	Y23	Z23	X24	Y24	Z24

243	0.968	0.13927554	0.014059346	-0.021172821	0.33924513	0.09269785	0.10390595	-0.0042444956	0.052100541	-0.070562582	0.19555747	0.12694076	0.12078902	0.011020969	0.071059596	0.02694674	0.22256492	0.15783099	0.028803161	-0.081245647	0.023504178	-0.030656969	0.13064183	0.10965737	0.06474112	0.11450832	0.45219073	-0.11751981	0.3506066	0.5501105	0.16337755	0.10281687	0.45317374	0.0085313028	0.34928253	0.53646756	0.037845171	0.12565937	0.87761151	-0.16705885	0.11873774	0.88549482	0.20397646	0.2113112	0.96124548	-0.10268465	0.19560477	0.97154082	0.13520553	0.039366429	1.022879	0.0048648735	0.22548488	1.4166213	-0.14135474	0.1640793	1.4270501	0.18194303	0.13180765	1.4731637	0.010172889	0.093004162	1.0720335	-0.23255228	0.0019454759	1.097929	0.25422158	0.29354858	0.88903831	-0.21754589	0.1340314	0.86147163	0.29090187
244	0.972	0.13930932	0.014029161	-0.021190771	0.35870157	0.092270171	0.10410176	-0.0043775217	0.052365712	-0.070324187	0.21420807	0.1229623	0.12105135	0.011315527	0.071297488	0.026993608	0.24039393	0.15463527	0.029103723	-0.081161146	0.023875819	-0.030177349	0.1498666	0.10422951	0.064833439	0.11487308	0.45205021	-0.11708704	0.35797079	0.55093737	0.1637347	0.10369236	0.45334551	0.0085159161	0.35639673	0.53697803	0.038301371	0.1301737	0.87729949	-0.16712401	0.12459729	0.88532397	0.20428913	0.2168141	0.9608731	-0.10272475	0.20140195	0.97133118	0.13529698	0.044982217	1.0226117	0.0051275019	0.23132305	1.4164032	-0.14114065	0.16976056	1.4266387	0.18216874	0.13764692	1.4728741	0.010295617	0.099502744	1.0713546	-0.23238122	0.0075565717	1.0975844	0.25412712	0.30159481	0.88993862	-0.21650903	0.13888139	0.86095812	0.29167724
245	0.976	0.13932611	0.014001843	-0.021199998	0.37820223	0.091879365	0.10432412	-0.004385951	0.052593941	-0.070142491	0.23292027	0.11909584	0.12132604	0.011722328	0.071527781	0.027003408	0.25829236	0.15154644	0.029441849	-0.081172222	0.024301768	-0.029600196	0.16923253	0.098974144	0.064878138	0.11542792	0.45198777	-0.11683711	0.36516583	0.55162084	0.16412776	0.10455512	0.45357084	0.0085090006	0.36347303	0.53731384	0.038796751	0.1347798	0.87695089	-0.16727072	0.13045775	0.88509192	0.20459993	0.22231413	0.96046557	-0.10277219	0.20721146	0.97105355	0.13537639	0.050608608	1.0222843	0.0053901183	0.23715535	1.416137	-0.14092225	0.17545469	1.4261818	0.18240762	0.14345095	1.4725594	0.010529904	0.10608866	1.070623	-0.23226394	0.013205105	1.0971725	0.2540462	0.30961315	0.89078392	-0.21547151	0.14381339	0.86038855	0.29242593
246	0.98	0.139308	0.013983012	-0.021196517	0.39771351	0.091579653	0.10460444	-0.0043065967	0.052795105	-0.069962883	0.2516297	0.11537167	0.12158242	0.012252015	0.071770382	0.026984669	0.2762467	0.14857613	0.029837439	-0.081268244	0.024777825	-0.028854863	0.1886254	0.093906509	0.064945305	0.1161553	0.45200001	-0.11677657	0.37211253	0.55214048	0.1645749	0.10570441	0.4537548	0.0084795291	0.37048256	0.53749344	0.039373911	0.13961731	0.87664403	-0.16725634	0.13631949	0.88479477	0.20490415	0.22782012	0.96002366	-0.10281886	0.21304782	0.97071429	0.13545169	0.056244225	1.0218957	0.0056621136	0.24297676	1.4158296	-0.1407021	0.18116418	1.4256808	0.18266167	0.14922127	1.4722063	0.010827603	0.1128298	1.0698532	-0.23225881	0.018898032	1.0967039	0.25398211	0.31759483	0.89157007	-0.21443647	0.14879431	0.85976497	0.29315576
247	0.984	0.13925771	0.013975631	-0.021184332	0.41717723	0.09141626	0.10496705	-0.0042403639	0.053011647	-0.069709626	0.27027425	0.11183012	0.1218456	0.012802812	0.072032437	0.027005285	0.29424198	0.14573655	0.030292384	-0.081391316	0.025290227	-0.028019793	0.20789336	0.089058317	0.065142172	0.11695582	0.45205976	-0.11680662	0.37878601	0.55247502	0.16508503	0.10703826	0.45390939	0.0084691062	0.37737028	0.53752239	0.040066135	0.1447292	0.87641371	-0.16697612	0.14218548	0.88443185	0.20520596	0.23332536	0.95954698	-0.1028665	0.21892149	0.97031565	0.13552847	0.061887211	1.0214517	0.0059526346	0.2487879	1.4154823	-0.14047886	0.18689044	1.4251358	0.18293091	0.15499053	1.4718104	0.01114895	0.1196134	1.0690464	-0.23223919	0.024632808	1.096186	0.25393538	0.32553956	0.89229447	-0.21340324	0.15378734	0.85908612	0.29387964
248	0.988	0.13920705	0.013974294	-0.0211752	0.4365334	0.091409672	0.10542554	-0.0042400299	0.053278671	-0.069370763	0.28885277	0.10849324	0.12217189	0.013265577	0.072317228	0.027137971	0.31227296	0.14304448	0.030781885	-0.081476214	0.025832047	-0.027239231	0.22702517	0.084444005	0.065492408	0.11775072	0.45214769	-0.11684799	0.3852527	0.55262531	0.16564692	0.10832924	0.45409096	0.0084955663	0.3841047	0.53739431	0.040853127	0.14999744	0.87623835	-0.16649778	0.14805832	0.88400849	0.20551053	0.23882559	0.95903389	-0.10291997	0.22483506	0.96985675	0.13560928	0.067534864	1.020964	0.0062653018	0.25459215	1.4150945	-0.14024823	0.19262535	1.4245501	0.18321113	0.16080596	1.4713606	0.011460152	0.12629113	1.0681916	-0.23204924	0.030407879	1.0956187	0.25390668	0.33345547	0.8929581	-0.21236514	0.15878492	0.85834872	0.2946046
249	0.992	0.13918844	0.013972971	-0.021182968	0.45576942	0.091567677	0.1059858	-0.0042951185	0.053600891	-0.068978641	0.30741972	0.10537122	0.12258235	0.013629294	0.07262911	0.027398163	0.33034237	0.14051798	0.031270367	-0.081499135	0.026402602	-0.026561587	0.24620477	0.080045805	0.065877632	0.11851089	0.45225922	-0.11686503	0.39156516	0.55258939	0.16625112	0.10952987	0.45431977	0.0085138642	0.39073269	0.53709828	0.041655572	0.15526341	0.87607202	-0.16596034	0.153934	0.88352384	0.20581565	0.24433574	0.95848519	-0.10297727	0.23078288	0.96933372	0.1356933	0.073183441	1.020443	0.0065969012	0.26039346	1.4146653	-0.14000536	0.1983592	1.4239275	0.18349575	0.16666935	1.4708472	0.011753163	0.13282336	1.0672863	-0.23166015	0.036220707	1.0949985	0.25389785	0.34134721	0.89356322	-0.21131532	0.16380783	0.85755067	0.29533344
